<svg xmlns="http://www.w3.org/2000/svg" width="18.75" height="18.75" viewBox="0 0 18.75 18.75">
  <path id="heart" d="M9.375,18.75a1.032,1.032,0,0,1-.725-.306C7.893,17.7,7.162,17,6.518,16.383l0,0A42.033,42.033,0,0,1,1.86,11.468,8.4,8.4,0,0,1,0,6.334a7.079,7.079,0,0,1,1.487-4.5A4.8,4.8,0,0,1,5.238,0,4.4,4.4,0,0,1,8.184,1.143a6.5,6.5,0,0,1,1.191,1.4,6.5,6.5,0,0,1,1.191-1.4A4.4,4.4,0,0,1,13.512,0a4.8,4.8,0,0,1,3.751,1.835,7.079,7.079,0,0,1,1.487,4.5,8.4,8.4,0,0,1-1.86,5.134,42.03,42.03,0,0,1-4.655,4.911C11.59,17,10.859,17.7,10.1,18.444a1.033,1.033,0,0,1-.725.306ZM5.238,1.235A3.768,3.768,0,0,0,2.295,2.672,5.762,5.762,0,0,0,1.1,6.334a7.056,7.056,0,0,0,1.607,4.347A41.35,41.35,0,0,0,7.227,15.44l0,0c.647.62,1.38,1.322,2.143,2.072.768-.751,1.5-1.455,2.15-2.075a41.36,41.36,0,0,0,4.522-4.759,7.056,7.056,0,0,0,1.607-4.347,5.762,5.762,0,0,0-1.2-3.662,3.768,3.768,0,0,0-2.943-1.437,3.4,3.4,0,0,0-2.274.885A5.863,5.863,0,0,0,9.971,3.768a.656.656,0,0,1-1.191,0A5.858,5.858,0,0,0,7.512,2.12a3.4,3.4,0,0,0-2.274-.885Zm0,0" transform="translate(0 0)" fill="#bbb"/>
</svg>
