<svg id="download" xmlns="http://www.w3.org/2000/svg" width="18.75" height="18.75" viewBox="0 0 18.75 18.75">
  <path id="Контур_1" data-name="Контур 1" d="M240.586,13.281A.586.586,0,0,1,240,12.7V.586a.586.586,0,0,1,1.172,0V12.7A.586.586,0,0,1,240.586,13.281Zm0,0" transform="translate(-231.211)" fill="#bbb"/>
  <path id="Контур_2" data-name="Контур 2" d="M158.383,249.614a.582.582,0,0,1-.414-.172l-3.125-3.125a.586.586,0,0,1,.829-.829l2.711,2.711,2.711-2.711a.586.586,0,1,1,.829.829l-3.125,3.125a.587.587,0,0,1-.416.172Zm0,0" transform="translate(-149.008 -236.333)" fill="#bbb"/>
  <path id="Контур_3" data-name="Контур 3" d="M16.6,347.582H2.148A2.15,2.15,0,0,1,0,345.434v-3.516a.586.586,0,1,1,1.172,0v3.516a.978.978,0,0,0,.977.977H16.6a.978.978,0,0,0,.977-.977v-3.516a.586.586,0,1,1,1.172,0v3.516A2.15,2.15,0,0,1,16.6,347.582Zm0,0" transform="translate(0 -328.832)" fill="#bbb"/>
</svg>
