<svg xmlns="http://www.w3.org/2000/svg" width="19" height="16.729" viewBox="0 0 19 16.729">
  <path id="Контур_1" data-name="Контур 1" d="M2.766,16.729H1.419l.952-.952a3.222,3.222,0,0,0,.92-1.905A7.256,7.256,0,0,1,.448,10.511a6.584,6.584,0,0,1-.19-4.219A8.26,8.26,0,0,1,3.422,1.873,10.341,10.341,0,0,1,9.532,0a10.241,10.241,0,0,1,7.062,2.407,7.225,7.225,0,0,1,1.8,8.277A7.432,7.432,0,0,1,16.589,13.2a10.218,10.218,0,0,1-7.057,2.417,12.84,12.84,0,0,1-3.194-.406,4.989,4.989,0,0,1-3.572,1.522ZM9.532,1.115c-4.611,0-7.441,2.75-8.2,5.476A5.615,5.615,0,0,0,4.159,13.1l.278.168-.009.324a4.391,4.391,0,0,1-.444,1.82,3.951,3.951,0,0,0,1.747-1.2l.236-.279.35.1a11.538,11.538,0,0,0,3.215.455c5.739,0,8.353-3.475,8.353-6.7A6.133,6.133,0,0,0,15.841,3.23,9.156,9.156,0,0,0,9.532,1.115Z" fill="#bbb"/>
</svg>
