<svg xmlns="http://www.w3.org/2000/svg" width="16.616" height="16.616" viewBox="0 0 16.616 16.616">
  <g id="correct" transform="translate(-0.008 0)">
    <path id="Контур_1" data-name="Контур 1" d="M23.015,12.024l-2.037-.906L20.071,9.08l-2.217.231L16.051,8l-1.8,1.308L12.032,9.08l-.906,2.037-2.038.907L9.32,14.24l-1.308,1.8,1.308,1.8-.232,2.215,2.037.906.907,2.038,2.217-.231,1.8,1.308,1.8-1.308,2.215.231.906-2.037,2.038-.907-.232-2.217,1.308-1.8-1.308-1.8Zm-8.571,7.236-2.275-2.275.758-.756,1.517,1.514,4.548-4.548.758.758Zm0,0" transform="translate(-7.736 -7.736)" fill="#57a4ff"/>
    <g id="Сгруппировать_1" data-name="Сгруппировать 1" transform="translate(0.008 0)">
      <path id="Контур_2" data-name="Контур 2" d="M16.572,8.151,15.324,6.429l.221-2.114a.268.268,0,0,0-.158-.273l-1.942-.864-.864-1.942a.27.27,0,0,0-.273-.158L10.194,1.3,8.473.051a.268.268,0,0,0-.315,0L6.437,1.3,4.322,1.078a.272.272,0,0,0-.273.158L3.185,3.178l-1.942.865a.268.268,0,0,0-.158.273l.221,2.114L.059,8.151a.268.268,0,0,0,0,.315l1.248,1.721L1.085,12.3a.268.268,0,0,0,.158.273l1.942.864.864,1.942a.271.271,0,0,0,.273.158l2.114-.221,1.721,1.248a.268.268,0,0,0,.315,0l1.721-1.248,2.114.221a.27.27,0,0,0,.273-.158l.864-1.942,1.942-.865a.268.268,0,0,0,.158-.273l-.221-2.114,1.248-1.721a.268.268,0,0,0,0-.315Zm-1.742,1.8a.267.267,0,0,0-.05.185l.211,2.023-1.859.827a.266.266,0,0,0-.136.136l-.827,1.859-2.023-.211a.267.267,0,0,0-.185.05L8.315,16.017,6.668,14.823a.265.265,0,0,0-.157-.051H6.484l-2.023.211-.827-1.859A.268.268,0,0,0,3.5,12.99l-1.86-.827L1.85,10.14a.269.269,0,0,0-.05-.185L.607,8.308,1.8,6.661a.269.269,0,0,0,.05-.185L1.639,4.453,3.5,3.626a.266.266,0,0,0,.136-.136L4.46,1.631l2.023.211a.27.27,0,0,0,.185-.05L8.315.6,9.962,1.793a.269.269,0,0,0,.185.05l2.023-.211L13,3.49a.268.268,0,0,0,.136.136l1.859.827-.211,2.023a.267.267,0,0,0,.05.185l1.194,1.647Zm0,0" transform="translate(-0.008 0)" fill="#1e81ce"/>
      <path id="Контур_3" data-name="Контур 3" d="M131.34,155.044a.268.268,0,0,0-.379,0L126.6,159.4l-1.327-1.325a.268.268,0,0,0-.378,0l-.76.755a.268.268,0,0,0,0,.379l2.275,2.275a.268.268,0,0,0,.379,0l5.306-5.306a.268.268,0,0,0,0-.379Zm-4.737,5.875-1.9-1.9.379-.378,1.328,1.325a.268.268,0,0,0,.379,0l4.358-4.358.379.379Zm0,0" transform="translate(-119.903 -149.774)" fill="#1e81ce"/>
    </g>
  </g>
</svg>
