<svg xmlns="http://www.w3.org/2000/svg" width="18.75" height="18.75" viewBox="0 0 18.75 18.75">
  <path id="retweet" d="M6.518,1.065C6.518.477,6.846,0,7.25,0H13.4c1.615,0,2.93,1.912,2.93,4.261v8.683c0,.588-.328,1.065-.732,1.065s-.732-.477-.732-1.065V4.261c0-1.175-.657-2.131-1.465-2.131H7.25C6.846,2.131,6.518,1.654,6.518,1.065ZM18.531,14a.586.586,0,0,0-1.036.01l-1.629,2.4a.317.317,0,0,1-.257.156h0a.317.317,0,0,1-.257-.156L13.7,14a.586.586,0,0,0-1.036,0,1.43,1.43,0,0,0,0,1.507l1.651,2.408a1.6,1.6,0,0,0,1.294.782h0a1.6,1.6,0,0,0,1.3-.788L18.538,15.5A1.43,1.43,0,0,0,18.531,14Zm-7.106,2.623H5.346c-.808,0-1.465-.956-1.465-2.131V5.54c0-.588-.328-1.065-.732-1.065s-.732.477-.732,1.065v8.949c0,2.35,1.314,4.261,2.93,4.261h6.079c.4,0,.732-.477.732-1.065S11.83,16.619,11.425,16.619ZM3.14,2.131h0a.317.317,0,0,1,.257.156L5.047,4.694a.64.64,0,0,0,.519.313A.639.639,0,0,0,6.083,4.7a1.43,1.43,0,0,0,0-1.506L4.434.782A1.589,1.589,0,0,0,3.139,0a1.6,1.6,0,0,0-1.3.788L.211,3.194A1.429,1.429,0,0,0,.218,4.7a.586.586,0,0,0,1.036-.01l1.63-2.4a.318.318,0,0,1,.257-.156Zm0,0" transform="translate(0.001 0)" fill="#bbb"/>
</svg>
